#!OML:ASF E:\emotionWalksFemale\Project 1\Capture day 1\Session 1\Female1.ASF
:FULLY-SPECIFIED
:DEGREES
994
root 26.1559 15.8032 11.2368 -184.251 7.95667 -174.193
lowerback 4.41765 1.84627 2.02382
upperback -5.41728 2.92191 0.920696
thorax -8.1165 1.42856 -0.507652
lowerneck -13.3426 -3.15814 -3.60235
upperneck 21.811 -3.79746 3.93652
head 9.20145 -1.34326 1.55125
rclavicle 2.75317e-014 1.39149e-014
rhumerus 34.2053 21.0994 -42.6719
rradius 29.0164
rwrist 18.4669
rhand -9.78958 -39.8388
rfingers 7.12502
rthumb 16.1863 -429.183
lclavicle 2.75317e-014 1.39149e-014
lhumerus 25.6972 -12.1805 47.6017
lradius 28.9787
lwrist -30.7284
lhand -14.1936 -48.8914
lfingers 7.12502
lthumb 11.9424 -19.2521
rfemur -1.38355 -3.97739 17.9592
rtibia 49.8625
rfoot -10.8374 -14.2412
rtoes 0.782939
lfemur -5.58565 -24.6588 -21.2939
ltibia 24.3904
lfoot -26.3053 29.9006
ltoes 30.8682
995
root 26.1416 15.7939 11.1555 -184.32 7.69297 -174.078
lowerback 4.48929 1.79707 1.98917
upperback -5.39191 2.86169 1.02206
thorax -8.13932 1.40427 -0.37753
lowerneck -13.6912 -3.15652 -3.38289
upperneck 22.0658 -3.74161 3.49743
head 9.33941 -1.34166 1.3683
rclavicle -1.21259e-014 2.78299e-015
rhumerus 34.296 21.6839 -41.7434
rradius 29.2476
rwrist 17.7878
rhand -10.0067 -39.4877
rfingers 7.12502
rthumb 15.9772 -428.849
lclavicle -1.21259e-014 2.78299e-015
lhumerus 25.7904 -12.3488 47.6398
lradius 28.9679
lwrist -30.5894
lhand -14.0996 -48.9688
lfingers 7.12502
lthumb 12.033 -19.3347
rfemur -1.97352 -3.9865 18.0732
rtibia 49.2289
rfoot -11.8841 -15.1255
rtoes 1.59488
lfemur -5.37951 -24.6777 -21.4829
ltibia 24.7901
lfoot -26.535 29.9828
ltoes 29.3888
996
root 26.127 15.7831 11.0698 -184.486 7.57226 -173.957
lowerback 4.60072 1.80366 2.00584
upperback -5.33092 2.87603 1.10934
thorax -8.14242 1.41166 -0.299695
lowerneck -13.8174 -3.1556 -3.49009
upperneck 22.1362 -3.72212 3.53543
head 9.39004 -1.33555 1.40097
rclavicle 2.38542e-015 -1.23246e-014
rhumerus 34.2419 22.1252 -40.9486
rradius 29.5862
rwrist 17.2876
rhand -9.7303 -39.7691
rfingers 7.12502
rthumb 16.2433 -429.109
lclavicle 2.38542e-015 -1.23246e-014
lhumerus 25.8804 -11.854 48.2566
lradius 28.6178
lwrist -31.3631
lhand -14.1699 -49.5104
lfingers 7.12502
lthumb 11.9653 -19.8724
rfemur -2.40805 -3.79978 18.2066
rtibia 48.534
rfoot -13.0001 -15.9279
rtoes 2.4856
lfemur -4.97021 -24.6722 -21.7413
ltibia 25.1407
lfoot -27.0097 29.8226
ltoes 29.1003
997
root 26.1133 15.7755 10.9892 -184.557 7.37346 -173.858
lowerback 4.72292 1.78868 2.00026
upperback -5.36872 2.86637 1.15126
thorax -8.25793 1.4081 -0.257146
lowerneck -13.5217 -3.14867 -3.94857
upperneck 21.8524 -3.7406 4.09525
head 9.25762 -1.32779 1.66924
rclavicle 8.44835e-015 5.56597e-015
rhumerus 34.1433 21.7829 -41.6715
rradius 29.1533
rwrist 18.1226
rhand -10.1455 -39.7398
rfingers 7.12502
rthumb 15.8436 -429.112
lclavicle 8.44835e-015 5.56597e-015
lhumerus 25.761 -11.8786 48.5139
lradius 28.6376
lwrist -31.8018
lhand -14.1721 -49.4264
lfingers 7.12502
lthumb 11.9632 -19.7883
rfemur -2.97498 -3.55854 18.3662
rtibia 47.767
rfoot -13.9853 -16.7499
rtoes 2.4231
lfemur -4.72462 -24.6589 -21.9352
ltibia 25.4937
lfoot -27.286 29.685
ltoes 28.9865
998
root 26.1001 15.7669 10.9165 -184.435 7.00764 -173.99
lowerback 4.6628 1.74569 1.78698
upperback -5.47858 2.79606 1.09887
thorax -8.3495 1.38694 -0.185515
lowerneck -13.1675 -3.1695 -4.31312
upperneck 21.6155 -3.79619 4.57254
head 9.1293 -1.33599 1.88932
rclavicle -2.14687e-014 -4.05521e-014
rhumerus 33.9284 21.8583 -41.5255
rradius 29.2466
rwrist 17.9033
rhand -10.6583 -39.7128
rfingers 7.12502
rthumb 15.3496 -429.123
lclavicle -2.14687e-014 -4.05521e-014
lhumerus 25.6734 -12.5282 48.2621
lradius 28.92
lwrist -31.3325
lhand -14.1905 -48.9099
lfingers 7.12502
lthumb 11.9454 -19.2708
rfemur -3.87624 -3.42701 18.2844
rtibia 46.9869
rfoot -14.6537 -17.6239
rtoes 1.7251
lfemur -4.80087 -24.6026 -22.2379
ltibia 25.8401
lfoot -27.1027 29.6143
ltoes 27.9046
999
root 26.0877 15.7546 10.8399 -184.392 6.73156 -173.864
lowerback 4.60252 1.7249 1.8543
upperback -5.49426 2.77954 1.13306
thorax -8.33026 1.37807 -0.18349
lowerneck -13.0225 -3.17683 -4.2961
upperneck 21.5557 -3.83774 4.71418
head 9.08613 -1.33724 1.93141
rclavicle -2.31584e-014 -1.15295e-014
rhumerus 33.7043 21.652 -41.6032
rradius 29.312
rwrist 18.1656
rhand -10.326 -39.8734
rfingers 7.12502
rthumb 15.6697 -429.259
lclavicle -2.31584e-014 -1.15295e-014
lhumerus 25.739 -13.0644 48.013
lradius 29.1186
lwrist -30.6108
lhand -14.275 -48.6924
lfingers 7.12502
lthumb 11.864 -19.0485
rfemur -4.61603 -3.15092 18.5006
rtibia 46.1667
rfoot -15.625 -18.2555
rtoes 2.62865
lfemur -4.69711 -24.6371 -22.3283
ltibia 26.1442
lfoot -26.9566 29.6385
ltoes 27.1031
1000
root 26.0771 15.7415 10.7627 -184.384 6.4534 -173.837
lowerback 4.65938 1.7046 1.76887
upperback -5.51858 2.75155 1.16063
thorax -8.39569 1.37061 -0.106322
lowerneck -13.3486 -3.1943 -4.0272
upperneck 21.8666 -3.8608 4.49232
head 9.24557 -1.33756 1.80816
rclavicle 3.28989e-014 2.42517e-014
rhumerus 33.5681 20.9486 -42.5
rradius 28.9084
rwrist 19.2247
rhand -10.3956 -39.2738
rfingers 7.12502
rthumb 15.6027 -428.664
lclavicle 3.28989e-014 2.42517e-014
lhumerus 25.7755 -13.2794 47.9508
lradius 29.2298
lwrist -30.1195
lhand -14.389 -48.8869
lfingers 7.12502
lthumb 11.754 -19.2367
rfemur -5.28541 -2.77955 18.5952
rtibia 45.3421
rfoot -16.8096 -18.5522
rtoes 4.00275
lfemur -4.5262 -24.7194 -22.5315
ltibia 26.3643
lfoot -27.0716 29.6266
ltoes 26.588
1001
root 26.069 15.731 10.6849 -184.404 6.26536 -173.991
lowerback 4.76712 1.70688 1.42553
upperback -5.56875 2.7306 1.16455
thorax -8.52905 1.38072 0.0868368
lowerneck -13.4011 -2.245 -4.3122
upperneck 21.8198 -4.1199 4.90224
head 9.25516 -2.09232 1.85987
rclavicle -4.47266e-015 -1.98785e-014
rhumerus 33.4502 20.6033 -42.9504
rradius 28.7368
rwrist 19.5917
rhand -10.5963 -39.5091
rfingers 7.12502
rthumb 15.4094 -428.915
lclavicle -4.47266e-015 -1.98785e-014
lhumerus 25.8043 -12.9262 48.2967
lradius 28.9501
lwrist -30.5088
lhand -14.4686 -49.342
lfingers 7.12502
lthumb 11.6772 -19.6875
rfemur -5.99196 -2.3364 18.4698
rtibia 44.4597
rfoot -17.4812 -18.9656
rtoes 3.17161
lfemur -4.33128 -24.5846 -22.8983
ltibia 26.5945
lfoot -27.4422 29.3977
ltoes 25.6132
1002
root 26.0626 15.7245 10.6061 -184.404 6.10283 -174.23
lowerback 4.48262 1.70993 1.14807
upperback -5.43694 2.68112 1.04968
thorax -8.2245 1.3681 0.140166
lowerneck -12.5 -2.18467 -4.78407
upperneck 20.6735 -4.06014 5.78452
head 8.71792 -2.01031 2.25381
rclavicle -3.3694e-014 -1.74931e-014
rhumerus 33.4754 20.1874 -43.2107
rradius 28.7333
rwrist 19.8386
rhand -10.1707 -40.2183
rfingers 7.12502
rthumb 15.8193 -429.592
lclavicle -3.3694e-014 -1.74931e-014
lhumerus 26.0801 -12.2884 48.6076
lradius 28.6325
lwrist -31.2534
lhand -14.4373 -49.3536
lfingers 7.12502
lthumb 11.7074 -19.7007
rfemur -6.73166 -1.8635 18.2302
rtibia 43.5282
rfoot -18.0685 -19.3514
rtoes 2.33227
lfemur -4.12574 -24.529 -23.3706
ltibia 26.8114
lfoot -27.7656 29.3225
ltoes 24.6606
1003
root 26.0565 15.7168 10.5312 -184.368 5.7762 -174.359
lowerback 4.38557 1.66381 0.941339
upperback -5.39756 2.59443 1.02361
thorax -8.13237 1.3369 0.242413
lowerneck -13.4127 -2.28401 -3.96704
upperneck 21.4622 -4.11636 4.58876
head 9.11985 -2.07826 1.69587
rclavicle 2.3556e-014 1.51076e-014
rhumerus 33.4713 19.9144 -43.3645
rradius 28.7037
rwrist 20.1246
rhand -10.1187 -39.5951
rfingers 7.12502
rthumb 15.8694 -428.965
lclavicle 2.3556e-014 1.51076e-014
lhumerus 26.0616 -12.2573 48.5999
lradius 28.7503
lwrist -31.5004
lhand -14.5611 -49.1494
lfingers 7.12502
lthumb 11.588 -19.4898
rfemur -7.42943 -1.38306 18.1245
rtibia 42.5612
rfoot -18.7045 -19.5683
rtoes 2.43582
lfemur -3.97181 -24.6136 -23.6996
ltibia 26.9529
lfoot -27.7047 29.3552
ltoes 23.8293
